<svg xmlns="http://www.w3.org/2000/svg" xmlns:xlink="http://www.w3.org/1999/xlink" width="100" height="100" viewBox="0 0 100 100" fill="none"><defs><rect id="path_0" x="0" y="0" width="100" height="100" /></defs><g opacity="1" transform="translate(0 0)  rotate(0 50 50)"><mask id="bg-mask-0" fill="white"><use xlink:href="#path_0"></use></mask><g mask="url(#bg-mask-0)" ><path id="圆形 1" fill-rule="evenodd" style="fill:#FFEB3B" transform="translate(1 1)  rotate(0 49 49)" opacity="1" d="M49,0C21.94,0 0,21.94 0,49C0,76.06 21.94,98 49,98C76.06,98 98,76.06 98,49C98,21.94 76.06,0 49,0Z " /><path  id="圆形 1" style="stroke:#000000; stroke-width:3; stroke-opacity:1; stroke-dasharray:0 0" transform="translate(1 1)  rotate(0 49 49)" d="M49,0C21.94,0 0,21.94 0,49C0,76.06 21.94,98 49,98C76.06,98 98,76.06 98,49C98,21.94 76.06,0 49,0Z " /><path id="圆形 2" fill-rule="evenodd" style="fill:#FFFFFF" transform="translate(16 16)  rotate(0 13.5 13.5)" opacity="1" d="M13.5,0C6.04,0 0,6.04 0,13.5C0,20.96 6.04,27 13.5,27C20.96,27 27,20.96 27,13.5C27,6.04 20.96,0 13.5,0Z " /><path  id="圆形 2" style="stroke:#000000; stroke-width:2; stroke-opacity:1; stroke-dasharray:0 0" transform="translate(16 16)  rotate(0 13.5 13.5)" d="M13.5,0C6.04,0 0,6.04 0,13.5C0,20.96 6.04,27 13.5,27C20.96,27 27,20.96 27,13.5C27,6.04 20.96,0 13.5,0Z " /><path id="圆形 2" fill-rule="evenodd" style="fill:#FFFFFF" transform="translate(57 16)  rotate(0 13.5 13.5)" opacity="1" d="M13.5,0C6.04,0 0,6.04 0,13.5C0,20.96 6.04,27 13.5,27C20.96,27 27,20.96 27,13.5C27,6.04 20.96,0 13.5,0Z " /><path  id="圆形 2" style="stroke:#000000; stroke-width:2; stroke-opacity:1; stroke-dasharray:0 0" transform="translate(57 16)  rotate(0 13.5 13.5)" d="M13.5,0C6.04,0 0,6.04 0,13.5C0,20.96 6.04,27 13.5,27C20.96,27 27,20.96 27,13.5C27,6.04 20.96,0 13.5,0Z " /><path id="圆形 3" fill-rule="evenodd" style="fill:#000000" transform="translate(71 29)  rotate(0 5.5 5.5)" opacity="1" d="M5.5,0C2.46,0 0,2.46 0,5.5C0,8.54 2.46,11 5.5,11C8.54,11 11,8.54 11,5.5C11,2.46 8.54,0 5.5,0Z " /><path id="直线 1"  style="fill:#000000" transform="translate(20.59 50.02)  rotate(0 29.388126968774785 0.0004898021161423571)" opacity="1" d="" /><path  id="直线 1" style="stroke:#000000; stroke-width:2; stroke-opacity:1; stroke-dasharray:0 0" transform="translate(20.59 50.02)  rotate(0 29.388126968774785 0.0004898021161423571)" d="M58.78,0L0,0 " /><path id="圆形 4" fill-rule="evenodd" style="fill:#FFFFFF" transform="translate(41 66)  rotate(0 9.5 9.5)" opacity="1" d="M9.5,0C4.25,0 0,4.25 0,9.5C0,14.75 4.25,19 9.5,19C14.75,19 19,14.75 19,9.5C19,4.25 14.75,0 9.5,0Z " /><path  id="圆形 4" style="stroke:#000000; stroke-width:2; stroke-opacity:1; stroke-dasharray:0 0" transform="translate(41 66)  rotate(0 9.5 9.5)" d="M9.5,0C4.25,0 0,4.25 0,9.5C0,14.75 4.25,19 9.5,19C14.75,19 19,14.75 19,9.5C19,4.25 14.75,0 9.5,0Z " /><path id="矩形 1" fill-rule="evenodd" style="fill:#FFFFFF" transform="translate(41 50)  rotate(0 9.5 13)" opacity="1" d="M0,26L19,26L19,0L0,0L0,26Z " /><rect  id="矩形 1" style="stroke:#000000; stroke-width:2; stroke-opacity:1; stroke-dasharray:0 0" transform="translate(41 50)  rotate(0 9.5 13)" x="1" y="1" rx="0"  width="17" height="24" /><path id="直线 2"  style="fill:#FFFFFF" transform="translate(43 75)  rotate(0 7.5 0.0005000000000023874)" opacity="1" d="" /><path  id="直线 2" style="stroke:#FFFFFF; stroke-width:3; stroke-opacity:1; stroke-dasharray:0 0" transform="translate(43 75)  rotate(0 7.5 0.0005000000000023874)" d="M0,0L15,0 " /><path id="圆形 3" fill-rule="evenodd" style="fill:#000000" transform="translate(19 19)  rotate(0 5.5 5.5)" opacity="1" d="M5.5,0C2.46,0 0,2.46 0,5.5C0,8.54 2.46,11 5.5,11C8.54,11 11,8.54 11,5.5C11,2.46 8.54,0 5.5,0Z " /></g></g></svg>